# xmcd CD database file
#
# Track frame offsets:
#	150
#	29461
#	68869
#	111034
#	144630
#
# Disc length: 2619 seconds
#
# Revision: 0
# Processed by: cddbd v1.5.2PL0 Copyright (c) Steve Scherf et al.
# Submitted via: CDex 1.79
#
DISCID=430a3905
DTITLE=Stan Getz - Ultimate collection
DYEAR=2015
DGENRE=Jazz
TTITLE0=Heart place
TTITLE1=Kali-au
TTITLE2=Chappaqua
TTITLE3=Autumn leaves
TTITLE4=Billie's bounce (SG)
EXTD=YEAR: 2015
EXTT0=
EXTT1=
EXTT2=
EXTT3=
EXTT4=
PLAYORDER=
